<svg xmlns="http://www.w3.org/2000/svg" height="20px" viewBox="0 0 24 24" width="20px" fill="#5f6368">
  <path d="M19.14,12.94c0.04-0.31,0.06-0.63,0.06-0.94s-0.02-0.63-0.06-0.94l2.03-1.58c0.18-0.14,0.23-0.4,0.12-0.61l-1.92-3.32
    c-0.11-0.21-0.35-0.3-0.57-0.22l-2.39,0.96c-0.5-0.38-1.04-0.7-1.64-0.94L14.5,2.81c-0.05-0.23-0.25-0.4-0.49-0.4h-4
    c-0.24,0-0.44,0.17-0.49,0.4L9.36,5.29c-0.6,0.24-1.14,0.56-1.64,0.94L5.33,5.27c-0.22-0.09-0.46,0.01-0.57,0.22L2.84,8.81
    c-0.11,0.21-0.06,0.47,0.12,0.61l2.03,1.58C4.94,11.37,4.92,11.69,4.92,12s0.02,0.63,0.06,0.94l-2.03,1.58
    c-0.18,0.14-0.23,0.4-0.12,0.61l1.92,3.32c0.11,0.21,0.35,0.3,0.57,0.22l2.39-0.96c0.5,0.38,1.04,0.7,1.64,0.94l0.65,2.48
    c0.05,0.23,0.25,0.4,0.49,0.4h4c0.24,0,0.44-0.17,0.49-0.4l0.65-2.48c0.6-0.24,1.14-0.56,1.64-0.94l2.39,0.96
    c0.22,0.09,0.46-0.01,0.57-0.22l1.92-3.32c0.11-0.21,0.06-0.47-0.12-0.61L19.14,12.94z M12,15.5c-1.93,0-3.5-1.57-3.5-3.5
    s1.57-3.5,3.5-3.5s3.5,1.57,3.5,3.5S13.93,15.5,12,15.5z"/>
</svg>